<?xml version="1.0" encoding="UTF-8"?>
<svg version="1.1" xmlns="http://www.w3.org/2000/svg" width="180" height="179">
<path d="M0 0 C3.65285835 3.03109523 6.99245195 6.32241035 10.30859375 9.71484375 C10.9015625 10.27558594 11.49453125 10.83632813 12.10546875 11.4140625 C22.56752612 22.12923416 27.22756757 38.70970323 27.68359375 53.21484375 C27.14358027 70.39142633 21.07425666 85.77120848 8.99609375 97.9921875 C7.19196378 99.43199139 7.19196378 99.43199139 7.30859375 100.71484375 C22.60443723 87.6964498 31.70975696 73.30721662 33.66015625 53.06640625 C33.96526857 40.72322611 31.45603659 29.85422877 25.515625 19.04296875 C24.30859375 16.71484375 24.30859375 16.71484375 24.30859375 14.71484375 C37.58623719 20.81142175 47.0519217 34.5802865 52.30859375 47.71484375 C58.39109873 65.24804316 57.1850859 86.18933056 49.87109375 103.0234375 C41.9310938 119.22790856 28.65991486 130.54160259 11.8828125 136.9609375 C-6.09804355 142.22695452 -24.41674106 141.05782472 -41.00390625 132.02734375 C-42.90632587 130.93456397 -44.80393148 129.8332386 -46.69140625 128.71484375 C-47.35140625 128.38484375 -48.01140625 128.05484375 -48.69140625 127.71484375 C-32.83557435 141.24835684 -16.11067008 145.21434269 4.30859375 143.71484375 C11.60198229 142.69440219 17.79552904 140.29827783 24.25 136.80078125 C26.30859375 135.71484375 26.30859375 135.71484375 29.30859375 134.71484375 C25.38388791 146.32195252 13.8560291 154.38189914 3.30859375 159.71484375 C-14.68331956 167.9009547 -34.45475458 171.59784979 -53.6953125 164.96875 C-71.58901289 157.47999143 -84.74332521 145.06837893 -92.47265625 127.140625 C-98.78516292 109.3968162 -97.90880912 91.85548865 -90.265625 74.6640625 C-85.63559188 65.98993098 -79.45211794 58.72040811 -71.69140625 52.71484375 C-84.38844287 59.06336206 -93.18265516 71.39732895 -97.69140625 84.71484375 C-103.23752 104.17405321 -100.91634793 121.86987461 -91.69140625 139.71484375 C-105.2630998 135.07825094 -113.00955575 120.88991605 -118.97509766 108.73339844 C-125.63897133 94.58385066 -127.34065056 77.76331551 -122.7890625 62.60546875 C-115.8889188 44.43427182 -104.90626607 31.00632197 -87.25390625 22.33984375 C-69.31887923 14.66254324 -51.34465316 14.89487024 -33.3671875 22.03515625 C-20.51568926 28.05775338 -10.11801387 37.64660637 -2.69140625 49.71484375 C-11.33249567 32.49812771 -22.66692096 21.03305582 -40.69140625 13.71484375 C-56.98419759 8.55820272 -74.07133514 9.1938883 -89.37890625 16.90234375 C-90.35214844 17.43214844 -91.32539062 17.96195313 -92.328125 18.5078125 C-94.69140625 19.71484375 -94.69140625 19.71484375 -96.69140625 19.71484375 C-94.511271 14.95435517 -91.26266223 11.49292922 -87.69140625 7.71484375 C-87.06492188 7.0496875 -86.4384375 6.38453125 -85.79296875 5.69921875 C-64.0196096 -15.49018057 -24.31586946 -18.47556825 0 0 Z M-48.0625 41.75 C-52.22417739 42.14669369 -54.16223845 43.1702882 -57.109375 46.203125 C-69.27509514 61.82208381 -70.95455151 76.55120496 -68.6171875 95.76953125 C-67.038428 100.79225136 -63.83702823 103.03185048 -59.421875 105.6640625 C-58.25269531 106.23769531 -57.08351563 106.81132813 -55.87890625 107.40234375 C-54.71746094 107.98371094 -53.55601563 108.56507812 -52.359375 109.1640625 C-44.79544362 112.36201858 -38.24552128 113.03436508 -30.12890625 112.96484375 C-29.22205078 112.97257812 -28.31519531 112.9803125 -27.38085938 112.98828125 C-18.28305257 113.07099915 -18.28305257 113.07099915 -10.65234375 108.71875 C-2.36275678 95.95768631 3.62101175 82.24958748 2.30859375 66.71484375 C2.29699219 66.0290625 2.28539063 65.34328125 2.2734375 64.63671875 C1.85891833 60.80806899 0.69040269 59.08123229 -2.109375 56.39453125 C-16.29780639 45.2713884 -30.37491953 41.48774592 -48.0625 41.75 Z M-1.69140625 52.71484375 C-0.69140625 54.71484375 -0.69140625 54.71484375 -0.69140625 54.71484375 Z M-0.69140625 54.71484375 C0.30859375 56.71484375 0.30859375 56.71484375 0.30859375 56.71484375 Z " fill="#00BAED" transform="translate(124.69140625,11.28515625)"/>
<path d="M0 0 C8.66992491 3.98089268 18.87821697 13.41878812 22.2578125 22.30859375 C22.62519531 23.64083984 22.62519531 23.64083984 23 25 C22.01 25.33 21.02 25.66 20 26 C17.69 23.03 15.38 20.06 13 17 C13 20.1918805 13.74924128 22.8571446 14.5546875 25.92578125 C15.13830682 28.64421862 15.13841388 31.23172247 15 34 C13.68 34 12.36 34 11 34 C10.67 35.32 10.34 36.64 10 38 C9.91363281 36.93523438 9.82726562 35.87046875 9.73828125 34.7734375 C8.7387338 23.96981824 7.03002938 13.71355482 1.33984375 4.234375 C0 2 0 2 0 0 Z " fill="#2BD4FA" transform="translate(149,26)"/>
<path d="M0 0 C0.33 0 0.66 0 1 0 C1.15855469 1.16015625 1.31710938 2.3203125 1.48046875 3.515625 C2.86772295 13.02050772 4.8334072 21.26803158 9 30 C9.67814479 31.66202944 10.34837479 33.3273952 11 35 C6.67953102 33.58319756 3.99538801 31.46236215 0.6875 28.375 C-0.19550781 27.55773437 -1.07851563 26.74046875 -1.98828125 25.8984375 C-2.65214844 25.27195313 -3.31601562 24.64546875 -4 24 C-3.67 23.34 -3.34 22.68 -3 22 C-2.82200234 18.99907293 -2.82200234 18.99907293 -4 16.375 C-5.24976939 12.15702831 -5.17449861 8.36246518 -5 4 C-4.360625 3.71125 -3.72125 3.4225 -3.0625 3.125 C-0.84793921 2.17176549 -0.84793921 2.17176549 0 0 Z " fill="#2CD5FA" transform="translate(22,116)"/>
<path d="M0 0 C10.82959015 4.44713208 16.63028375 18.62862303 20.85546875 28.609375 C22.57702832 33.25253892 23.18301142 37.21945624 23.1171875 42.15625 C23.10816406 43.03925781 23.09914063 43.92226562 23.08984375 44.83203125 C23.07824219 45.49589844 23.06664063 46.15976563 23.0546875 46.84375 C22.7246875 46.84375 22.3946875 46.84375 22.0546875 46.84375 C21.97734375 45.8228125 21.97734375 45.8228125 21.8984375 44.78125 C20.21911435 30.43067039 12.50150873 16.13094523 1.55078125 6.68359375 C-0.57785068 5.00800398 -2.72545228 3.39559673 -4.9453125 1.84375 C-1.9453125 -0.15625 -1.9453125 -0.15625 0 0 Z " fill="#00C9F3" transform="translate(103.9453125,31.15625)"/>
<path d="M0 0 C0.99 0.33 1.98 0.66 3 1 C3.07476562 2.09957031 3.14953125 3.19914062 3.2265625 4.33203125 C4.18144599 15.80232561 6.91039413 23.75176787 14 33 C11.50935112 33.68707555 9.62113708 34 7 34 C1.29727255 22.15922239 -0.30400178 12.97074265 0 0 Z " fill="#26D3FA" transform="translate(53,96)"/>
<path d="M0 0 C0.33 0 0.66 0 1 0 C1.24875561 2.26877104 1.47339246 4.54019735 1.6875 6.8125 C1.81511719 8.07707031 1.94273438 9.34164062 2.07421875 10.64453125 C2 14 2 14 0.70703125 15.94921875 C-1 17 -1 17 -4 17 C-4.8723412 14.00519083 -5.10829766 11.36424089 -5.0625 8.25 C-5.05347656 7.45078125 -5.04445313 6.6515625 -5.03515625 5.828125 C-5.02355469 5.22484375 -5.01195313 4.6215625 -5 4 C-4.360625 3.71125 -3.72125 3.4225 -3.0625 3.125 C-0.84793921 2.17176549 -0.84793921 2.17176549 0 0 Z " fill="#28D3FA" transform="translate(22,116)"/>
<path d="M0 0 C1.83203125 0.140625 1.83203125 0.140625 4 1 C5.44921875 3.546875 5.44921875 3.546875 6.6875 6.75 C7.10386719 7.79671875 7.52023438 8.8434375 7.94921875 9.921875 C9.51108903 14.49716787 10.12686628 18.48502932 10.0625 23.3125 C10.05347656 24.19550781 10.04445313 25.07851562 10.03515625 25.98828125 C10.02355469 26.65214844 10.01195313 27.31601563 10 28 C9.67 28 9.34 28 9 28 C8.93683594 27.29617187 8.87367187 26.59234375 8.80859375 25.8671875 C7.81573609 17.86161943 5.24858756 11.82100628 1.4609375 4.8359375 C0 2 0 2 0 0 Z " fill="#2AD5FB" transform="translate(117,50)"/>
<path d="M0 0 C0.33 0 0.66 0 1 0 C1 2.64 1 5.28 1 8 C0.38125 8.268125 -0.2375 8.53625 -0.875 8.8125 C-3.2995233 9.95556848 -3.2995233 9.95556848 -5 13 C-5 10.03 -5 7.06 -5 4 C-3.68 3.34 -2.36 2.68 -1 2 C-0.67 1.34 -0.34 0.68 0 0 Z " fill="#16D1F9" transform="translate(22,116)"/>
<path d="M0 0 C0.33 0 0.66 0 1 0 C0.67 5.28 0.34 10.56 0 16 C-0.66 16 -1.32 16 -2 16 C-2 18.64 -2 21.28 -2 24 C-2.33 24 -2.66 24 -3 24 C-3.51917486 15.65474478 -1.95829294 8.08961486 0 0 Z " fill="#02CDF5" transform="translate(55,80)"/>
<path d="M0 0 C1.38938077 1.96147874 2.7260411 3.96166576 4 6 C1.50935112 6.68707555 -0.37886292 7 -3 7 C-3.66 5.02 -4.32 3.04 -5 1 C-2 0 -2 0 0 0 Z " fill="#15D3F9" transform="translate(63,123)"/>
<path d="M0 0 C2.31966166 2.84685749 3.91581154 5.4763875 5 9 C4.67 9.99 4.34 10.98 4 12 C1.3755397 9.6254883 -0.50692877 7.22189054 -2 4 C-1.1875 1.6875 -1.1875 1.6875 0 0 Z " fill="#00D0F6" transform="translate(172,50)"/>
<path d="M0 0 C0 1.98 0 3.96 0 6 C-1.32 6 -2.64 6 -4 6 C-4.33 7.32 -4.66 8.64 -5 10 C-4.38675022 3.49955237 -4.38675022 3.49955237 -2.5 1.0625 C-1 0 -1 0 0 0 Z " fill="#09CDF8" transform="translate(164,54)"/>
<path d="M0 0 C0.33 0 0.66 0 1 0 C1.25 2.75 1.25 2.75 1 6 C-1 8.375 -1 8.375 -3 10 C-3 8.02 -3 6.04 -3 4 C-2.34 3.67 -1.68 3.34 -1 3 C-0.67 2.01 -0.34 1.02 0 0 Z " fill="#1BD1F9" transform="translate(162,49)"/>
<path d="M0 0 C2.88437779 1.29299694 4.87219421 2.65941363 7 5 C5.02 5.99 5.02 5.99 3 7 C0 2.25 0 2.25 0 0 Z " fill="#17D2FA" transform="translate(149,26)"/>
<path d="M0 0 C1.32 0.33 2.64 0.66 4 1 C4.33 2.32 4.66 3.64 5 5 C4.01 5 3.02 5 2 5 C1.34 3.35 0.68 1.7 0 0 Z " fill="#19D1FA" transform="translate(117,50)"/>
</svg>
